<svg width="64" height="64" viewBox="0 0 64 64" fill="none" xmlns="http://www.w3.org/2000/svg">
  <rect width="64" height="64" rx="12" fill="#2563eb"/>
  <path d="M16 20C16 18.8954 16.8954 18 18 18H46C47.1046 18 48 18.8954 48 20V44C48 45.1046 47.1046 46 46 46H18C16.8954 46 16 45.1046 16 44V20Z" fill="white"/>
  <path d="M22 26L22 38L26 38L26 32L28 35L30 32L30 38L34 38L34 26L30 26L28 30.5L26 26L22 26Z" fill="#2563eb"/>
  <path d="M36 26L36 38L40 38L42 35L42 38L46 38L46 26L42 26L40 29L40 26L36 26Z" fill="#2563eb" fill-opacity="0.7"/>
</svg>
